<svg width="382" height="62" fill="none" xmlns="http://www.w3.org/2000/svg"><path d="M1.727 61.818 0 57.273h3.636l-1.909 4.545ZM3.636 0H0v51.818h3.636V0Zm9.091.182a1.818 1.818 0 0 0 0 3.636h50.91c7.028 0 12.727 5.698 12.727 12.727 0 7.03-5.699 12.728-12.728 12.728h-7.09v3.636h7.09c7.03 0 12.728 5.698 12.728 12.727 0 7.03-5.699 12.728-12.728 12.728H12.727a1.818 1.818 0 0 0 0 3.636h50.91C72.673 62 80 54.674 80 45.636c0-6.332-3.597-11.825-8.86-14.545C76.403 28.37 80 22.878 80 16.545 80 7.508 72.674.182 63.636.182H12.727Z" fill="#DAA520"/><path d="M13.455 14.727a1.818 1.818 0 0 0 0 3.637h17.272v34.363l11.091-7L53 53.182V18.364h14.091v-3.637H13.455Z" fill="#DAA520"/><path d="M12.727 29.454a1.818 1.818 0 0 0 0 3.637h14.364v-3.637H12.727Zm0 14.364a1.818 1.818 0 0 0 0 3.637h14.364v-3.637H12.727Zm43.818 0v3.637h8.728v-3.637h-8.727Zm324.121-6.998c-.687 0-1.238.043-1.653.129-.416.086-.738.25-.967.494-.215.229-.358.551-.429.966-.058.415-.086.952-.086 1.611v18.514h-.559l-14.519-17.676v13.51c0 .686.029 1.238.086 1.653.072.415.215.737.43.966.214.23.53.387.945.473.415.072.966.107 1.654.107v.623h-7.647v-.623c.688 0 1.232-.043 1.633-.129.415-.085.73-.243.945-.472.215-.243.358-.573.429-.988.072-.415.108-.952.108-1.61V39.095c-.272-.372-.53-.694-.773-.966a3.516 3.516 0 0 0-.752-.709 2.68 2.68 0 0 0-.902-.45c-.344-.101-.766-.151-1.267-.151v-.58h5.369l13.424 16.452V40.02c0-.659-.036-1.196-.108-1.61-.071-.416-.222-.738-.451-.967-.215-.244-.53-.408-.945-.494-.401-.086-.945-.13-1.632-.13v-.58h7.667v.58Zm-26.138 21.37h-16.882v-.623c.688 0 1.232-.043 1.633-.129.415-.085.73-.243.945-.472.214-.243.358-.573.429-.988.072-.43.108-.98.108-1.654V40.02c0-.687-.029-1.239-.086-1.654-.058-.415-.194-.737-.408-.966-.215-.23-.53-.38-.945-.451-.416-.086-.974-.13-1.676-.13v-.58h16.882l.258 4.79h-.602a18.748 18.748 0 0 0-.537-1.74c-.157-.472-.379-.844-.665-1.116-.273-.272-.652-.465-1.139-.58-.472-.115-1.117-.172-1.933-.172h-6.057v8.677h4.833c.673 0 1.21-.043 1.611-.129.415-.1.744-.264.988-.494.257-.243.444-.565.558-.966.129-.415.236-.945.322-1.59h.602v7.668h-.602c-.086-.644-.193-1.174-.322-1.59-.114-.414-.293-.744-.537-.987-.243-.258-.573-.437-.988-.537-.401-.1-.945-.15-1.632-.15h-4.833v7.216c0 .4.008.759.022 1.074.029.3.1.558.215.773.114.2.293.358.537.473.257.1.615.15 1.074.15h3.694c.959 0 1.747-.079 2.362-.236a4.306 4.306 0 0 0 1.59-.752 5.245 5.245 0 0 0 1.224-1.332c.358-.558.759-1.224 1.203-1.997h.687l-1.933 5.498Zm-18.02-11.383c-.601 0-1.067.072-1.396.215-.329.143-.573.35-.73.623-.158.272-.258.608-.301 1.01-.029.4-.043.851-.043 1.352v6.723a13.64 13.64 0 0 1-3.737 1.503c-1.303.33-2.642.494-4.016.494-1.676 0-3.251-.25-4.726-.751-1.474-.502-2.763-1.232-3.866-2.191a10.6 10.6 0 0 1-2.598-3.501c-.63-1.389-.945-2.971-.945-4.747 0-1.632.293-3.164.88-4.596a11.742 11.742 0 0 1 2.47-3.737 11.201 11.201 0 0 1 3.694-2.513c1.432-.616 2.971-.924 4.618-.924.716 0 1.418.058 2.105.172.701.1 1.396.272 2.083.516.029 0 .143.036.344.107.2.072.415.15.644.236.244.072.466.144.666.215.201.072.308.108.322.108.158 0 .287-.05.387-.15.1-.115.179-.244.236-.387.072-.144.122-.287.15-.43a9.53 9.53 0 0 0 .065-.387h.558l.58 6.895h-.58a10.999 10.999 0 0 0-1.074-2.384 7.306 7.306 0 0 0-1.525-1.826 6.15 6.15 0 0 0-2.04-1.181c-.773-.272-1.647-.408-2.62-.408-1.432 0-2.663.28-3.694.837a7.542 7.542 0 0 0-2.556 2.234c-.673.93-1.174 1.998-1.504 3.2a14.605 14.605 0 0 0-.472 3.716c0 1.274.164 2.549.494 3.823a11.642 11.642 0 0 0 1.546 3.458 8.608 8.608 0 0 0 2.642 2.492c1.06.63 2.32.945 3.78.945a9.71 9.71 0 0 0 2.32-.28 8.617 8.617 0 0 0 2.19-.902v-6.379c0-.601-.028-1.102-.086-1.503-.057-.401-.186-.723-.386-.967-.201-.243-.487-.422-.859-.537-.373-.114-.881-.179-1.525-.193v-.58h8.505v.58Zm-23.926-9.987c-.688 0-1.239.043-1.654.129-.415.086-.737.25-.967.494-.214.229-.358.551-.429.966-.057.415-.086.952-.086 1.611v18.514h-.558l-14.519-17.676v13.51c0 .686.028 1.238.085 1.653.072.415.215.737.43.966.215.23.53.387.945.473.415.072.967.107 1.654.107v.623h-7.646v-.623c.687 0 1.231-.043 1.632-.129.415-.085.73-.243.945-.472.215-.243.358-.573.43-.988.071-.415.107-.952.107-1.61V39.095c-.272-.372-.53-.694-.773-.966a3.493 3.493 0 0 0-.752-.709 2.67 2.67 0 0 0-.902-.45c-.344-.101-.766-.151-1.267-.151v-.58h5.369l13.424 16.452V40.02c0-.659-.036-1.196-.107-1.61-.072-.416-.222-.738-.451-.967-.215-.244-.53-.408-.945-.494-.401-.086-.946-.13-1.633-.13v-.58h7.668v.58Zm-23.798 0c-.658 0-1.195.057-1.61.172-.416.114-.738.308-.967.58-.229.272-.387.63-.472 1.073-.086.43-.129.96-.129 1.59v8.935c0 1.503-.144 2.849-.43 4.037-.272 1.175-.737 2.17-1.396 2.986-.644.816-1.511 1.446-2.599 1.89-1.088.43-2.441.644-4.059.644-1.79 0-3.25-.222-4.382-.666-1.116-.444-1.99-1.088-2.62-1.933-.63-.859-1.059-1.904-1.288-3.135-.215-1.246-.323-2.664-.323-4.253v-8.634c0-.601-.028-1.11-.086-1.525-.057-.415-.186-.752-.386-1.01-.186-.271-.473-.465-.859-.58-.373-.114-.881-.171-1.525-.171v-.58h8.827v.58c-.63 0-1.131.057-1.503.172-.373.114-.659.308-.859.58-.201.257-.337.594-.408 1.009-.058.415-.086.924-.086 1.525v9.6c0 1.017.064 1.99.193 2.921.143.917.415 1.726.816 2.427a4.604 4.604 0 0 0 1.74 1.654c.759.401 1.747.602 2.964.602.988 0 1.933-.158 2.835-.473a6.83 6.83 0 0 0 2.448-1.503c.358-.33.637-.76.838-1.289.2-.544.351-1.11.451-1.697.1-.601.157-1.195.172-1.782a34.45 34.45 0 0 0 .043-1.568v-8.892c0-.687-.036-1.239-.108-1.654-.057-.43-.2-.766-.429-1.01-.215-.243-.53-.407-.945-.493-.416-.086-.967-.13-1.654-.13v-.58h7.796v.58Zm-25.558 21.37h-17.87v-.623l14.047-20.06h-7.002c-.816 0-1.489.079-2.019.236-.515.144-.938.38-1.267.71-.315.328-.566.765-.752 1.31a14.665 14.665 0 0 0-.451 1.975h-.601l.472-5.498h16.237l-14.433 20.64h8.978c.845 0 1.547-.1 2.105-.3a3.798 3.798 0 0 0 1.396-.903c.387-.4.709-.88.966-1.439.258-.572.502-1.217.731-1.933l.472.086-1.009 5.8Zm-19.76-16.795c-.129-1.246-.508-2.184-1.138-2.814-.63-.644-1.597-.967-2.9-.967h-3.071v16.753c0 .673.029 1.217.086 1.633.057.415.193.744.408.987.215.23.523.387.924.473.415.072.966.107 1.653.107v.623h-9.278v-.623c.687 0 1.231-.043 1.632-.129.401-.085.709-.243.924-.472.215-.243.351-.573.408-.988.071-.415.107-.952.107-1.61V37.613h-2.641c-.688 0-1.289.065-1.805.194a3.16 3.16 0 0 0-1.31.601c-.343.287-.615.673-.816 1.16-.186.487-.308 1.095-.365 1.826h-.752l.215-5.155h18.213l.215 5.155h-.709Zm-21.37 16.795h-16.882v-.623c.688 0 1.232-.043 1.633-.129.415-.085.73-.243.945-.472.214-.243.358-.573.429-.988.072-.43.108-.98.108-1.654V40.02c0-.687-.029-1.239-.086-1.654-.058-.415-.194-.737-.408-.966-.215-.23-.53-.38-.945-.451-.416-.086-.974-.13-1.676-.13v-.58h16.882l.258 4.79h-.602a18.748 18.748 0 0 0-.537-1.74c-.157-.472-.379-.844-.666-1.116-.272-.272-.651-.465-1.138-.58-.472-.115-1.117-.172-1.933-.172h-6.057v8.677h4.833c.673 0 1.21-.043 1.611-.129.415-.1.744-.264.988-.494.257-.243.444-.565.558-.966.129-.415.236-.945.322-1.59h.602v7.668h-.602c-.086-.644-.193-1.174-.322-1.59-.114-.414-.293-.744-.537-.987-.243-.258-.573-.437-.988-.537-.401-.1-.945-.15-1.632-.15h-4.833v7.216c0 .4.008.759.022 1.074.028.3.1.558.215.773.114.2.293.358.537.473.257.1.615.15 1.073.15h3.695c.959 0 1.746-.079 2.362-.236a4.306 4.306 0 0 0 1.59-.752 5.245 5.245 0 0 0 1.224-1.332c.358-.558.759-1.224 1.203-1.997h.687l-1.933 5.498Zm-19.352-5.627c0 .96-.193 1.819-.58 2.578a5.991 5.991 0 0 1-1.546 1.933c-.63.53-1.36.937-2.191 1.224-.83.286-1.689.43-2.577.43a7.407 7.407 0 0 1-1.761-.215 23.838 23.838 0 0 1-1.676-.43c-.515-.158-.988-.3-1.417-.43-.43-.143-.78-.214-1.052-.214a.792.792 0 0 0-.451.129.999.999 0 0 0-.301.3 2.03 2.03 0 0 0-.172.408 26.22 26.22 0 0 1-.086.451h-.58v-7.581h.58c.115.93.337 1.782.666 2.556a6.445 6.445 0 0 0 1.31 1.997 5.96 5.96 0 0 0 1.955 1.289c.773.3 1.646.45 2.62.45.53 0 1.052-.071 1.568-.214a4.396 4.396 0 0 0 1.396-.687 3.596 3.596 0 0 0 1.009-1.117c.258-.459.387-.988.387-1.59 0-.63-.172-1.195-.516-1.696a5.777 5.777 0 0 0-1.31-1.418 12.48 12.48 0 0 0-1.868-1.246c-.702-.4-1.418-.801-2.148-1.202A45.791 45.791 0 0 1 191.877 47a11.393 11.393 0 0 1-1.869-1.46 7.536 7.536 0 0 1-1.332-1.783c-.329-.658-.494-1.403-.494-2.233 0-.903.172-1.712.516-2.427a5.515 5.515 0 0 1 1.417-1.805 6.096 6.096 0 0 1 2.019-1.138 7.623 7.623 0 0 1 2.427-.387c.501 0 .995.065 1.482.194.501.129.974.272 1.418.43.458.143.873.279 1.245.407.373.13.681.194.924.194a.698.698 0 0 0 .43-.13 1.47 1.47 0 0 0 .3-.3c.086-.129.151-.265.194-.408.057-.143.1-.272.128-.387h.623v7.56h-.623a8.427 8.427 0 0 0-.558-2.426 6.26 6.26 0 0 0-1.224-1.998 5.38 5.38 0 0 0-1.826-1.353c-.716-.343-1.539-.515-2.47-.515-.487 0-.959.079-1.417.236a4.075 4.075 0 0 0-1.246.687 3.49 3.49 0 0 0-.881 1.053 2.87 2.87 0 0 0-.322 1.374c0 .602.172 1.146.516 1.633.343.486.794.937 1.353 1.353.573.415 1.217.816 1.933 1.202.716.373 1.446.76 2.191 1.16.758.387 1.496.802 2.212 1.246.716.444 1.353.938 1.911 1.482a6.733 6.733 0 0 1 1.375 1.825c.343.66.515 1.418.515 2.277Zm-22.251 5.627-7.431-10.245a6.602 6.602 0 0 1-.773.043h-1.181l-.387-.043v6.38c0 .672.036 1.223.107 1.653.086.415.244.745.473.988.229.23.551.387.966.472.43.086.988.13 1.676.13v.622h-9.408v-.623c.702 0 1.26-.043 1.676-.129.415-.085.73-.243.945-.472.214-.243.35-.573.408-.988.057-.43.086-.98.086-1.654V40.106c0-.687-.029-1.239-.086-1.654-.058-.43-.194-.766-.408-1.01-.215-.243-.53-.407-.945-.493-.416-.086-.974-.13-1.676-.13v-.58h8.269c.645 0 1.303.022 1.976.065a12.82 12.82 0 0 1 1.998.28 9.834 9.834 0 0 1 1.868.601 4.89 4.89 0 0 1 1.547 1.01c.444.415.794.923 1.052 1.524.258.602.387 1.318.387 2.148 0 .83-.136 1.568-.408 2.212a4.858 4.858 0 0 1-1.139 1.633 6.222 6.222 0 0 1-1.697 1.116c-.658.287-1.367.509-2.126.666l4.489 6.336c.401.559.788 1.053 1.16 1.482.372.43.773.802 1.203 1.117a5.59 5.59 0 0 0 1.417.752 8.07 8.07 0 0 0 1.847.386v.623h-5.885Zm-2.47-16.065c0-.702-.114-1.339-.343-1.912a4.006 4.006 0 0 0-.988-1.46 4.083 4.083 0 0 0-1.504-.945c-.572-.23-1.21-.344-1.911-.344a9.57 9.57 0 0 0-1.267.086c-.416.057-.845.122-1.289.193v9.15h.923c.788 0 1.561-.079 2.32-.236a6.56 6.56 0 0 0 2.04-.773 4.443 4.443 0 0 0 1.461-1.461c.372-.616.558-1.382.558-2.298ZM161.314 58.19h-16.882v-.623c.687 0 1.231-.043 1.632-.129.416-.085.731-.243.945-.472.215-.243.358-.573.43-.988.072-.43.107-.98.107-1.654V40.02c0-.687-.028-1.239-.086-1.654-.057-.415-.193-.737-.408-.966-.214-.23-.529-.38-.945-.451-.415-.086-.973-.13-1.675-.13v-.58h16.882l.257 4.79h-.601a18.748 18.748 0 0 0-.537-1.74c-.157-.472-.379-.844-.666-1.116-.272-.272-.651-.465-1.138-.58-.473-.115-1.117-.172-1.933-.172h-6.057v8.677h4.833c.673 0 1.21-.043 1.611-.129.415-.1.744-.264.987-.494.258-.243.444-.565.559-.966.129-.415.236-.945.322-1.59h.601v7.668h-.601c-.086-.644-.193-1.174-.322-1.59-.115-.414-.294-.744-.537-.987-.243-.258-.573-.437-.988-.537-.401-.1-.945-.15-1.632-.15h-4.833v7.216c0 .4.007.759.022 1.074.028.3.1.558.214.773.115.2.294.358.537.473.258.1.616.15 1.074.15h3.694c.96 0 1.747-.079 2.363-.236a4.301 4.301 0 0 0 1.589-.752 5.23 5.23 0 0 0 1.225-1.332 48.69 48.69 0 0 0 1.202-1.997h.688l-1.933 5.498Zm-18.879-5.992c0 .86-.136 1.61-.408 2.255a4.785 4.785 0 0 1-1.117 1.61 6.057 6.057 0 0 1-1.654 1.096 10.64 10.64 0 0 1-1.976.645 16.87 16.87 0 0 1-2.126.3c-.716.058-1.411.086-2.084.086h-10.33v-.623c.687 0 1.231-.043 1.632-.129.415-.1.73-.264.945-.494.215-.243.358-.572.429-.987.072-.43.108-.974.108-1.633V40.106c0-.687-.029-1.239-.086-1.654-.057-.43-.193-.766-.408-1.01-.215-.243-.53-.407-.945-.493-.415-.086-.974-.13-1.675-.13v-.58h9.45c.673 0 1.367.03 2.083.087a14.62 14.62 0 0 1 2.105.322c.687.143 1.339.35 1.954.623a5.46 5.46 0 0 1 1.611 1.074c.473.43.845.96 1.117 1.59.272.615.408 1.345.408 2.19 0 .616-.107 1.181-.322 1.697-.2.515-.48.98-.838 1.396-.358.4-.78.751-1.267 1.052-.487.3-1.009.537-1.568.709.731.129 1.396.33 1.998.601a5.15 5.15 0 0 1 1.568 1.031c.443.415.787.924 1.031 1.525.243.587.365 1.274.365 2.062Zm-4.403-10.245c0-.86-.186-1.582-.559-2.17a4.195 4.195 0 0 0-1.417-1.417 5.79 5.79 0 0 0-1.955-.794 10.067 10.067 0 0 0-2.169-.237c-.501 0-1.002.029-1.503.086-.487.043-.974.122-1.461.236v8.441a8.159 8.159 0 0 0 1.546.194c.53.014 1.046.021 1.547.021.759 0 1.496-.057 2.212-.172a5.734 5.734 0 0 0 1.912-.687 3.708 3.708 0 0 0 1.331-1.332c.344-.572.516-1.295.516-2.169Zm.666 10.481c0-.945-.208-1.732-.623-2.362a4.769 4.769 0 0 0-1.611-1.547 6.68 6.68 0 0 0-2.191-.816 11.755 11.755 0 0 0-2.427-.258c-.458 0-.923.008-1.396.022-.472 0-.966.036-1.482.107v9.02c.63.144 1.253.259 1.869.344.615.072 1.245.108 1.89.108.73 0 1.446-.079 2.147-.236a6.186 6.186 0 0 0 1.912-.795 4.266 4.266 0 0 0 1.375-1.439c.358-.587.537-1.303.537-2.148ZM121.859 36.82c-.659 0-1.196.057-1.611.172-.415.114-.737.308-.966.58-.23.272-.387.63-.473 1.074-.086.43-.129.959-.129 1.589v8.935c0 1.503-.143 2.85-.429 4.038-.272 1.174-.738 2.169-1.396 2.985-.645.816-1.511 1.446-2.599 1.89-1.088.43-2.442.644-4.06.644-1.789 0-3.25-.222-4.381-.665-1.117-.444-1.99-1.089-2.62-1.933-.63-.86-1.06-1.905-1.289-3.136-.215-1.246-.322-2.663-.322-4.253v-8.634c0-.601-.029-1.11-.086-1.525-.057-.415-.186-.752-.387-1.01-.186-.271-.472-.465-.859-.58-.372-.114-.88-.171-1.525-.171v-.58h8.828v.58c-.63 0-1.131.057-1.504.172-.372.114-.658.308-.859.58-.2.257-.336.594-.408 1.01a11.46 11.46 0 0 0-.086 1.524v9.6c0 1.017.065 1.99.193 2.922.144.916.416 1.725.817 2.427a4.607 4.607 0 0 0 1.739 1.653c.759.401 1.747.602 2.964.602.988 0 1.933-.158 2.835-.473a6.834 6.834 0 0 0 2.449-1.503c.358-.33.637-.76.837-1.289.201-.544.351-1.11.451-1.697a12.56 12.56 0 0 0 .172-1.782c.029-.602.043-1.124.043-1.568v-8.892c0-.687-.036-1.239-.107-1.654-.057-.43-.201-.766-.43-1.01-.214-.243-.529-.407-.945-.493-.415-.086-.966-.129-1.654-.129v-.58h7.797v.58Zm-6.873-5.391c0 .23-.043.451-.129.666-.086.2-.207.38-.365.537a1.625 1.625 0 0 1-.515.343 1.571 1.571 0 0 1-.623.13c-.444 0-.838-.165-1.182-.495-.329-.343-.494-.737-.494-1.181 0-.215.043-.415.129-.601.101-.2.229-.373.387-.516a1.69 1.69 0 0 1 .537-.365c.2-.086.408-.129.623-.129.444 0 .823.158 1.138.473.329.315.494.694.494 1.138Zm-6.594 0c0 .23-.05.451-.15.666-.086.2-.208.38-.365.537a1.57 1.57 0 0 1-.537.343 1.59 1.59 0 0 1-1.783-.365 1.697 1.697 0 0 1-.472-1.181c0-.215.043-.415.129-.601.1-.2.222-.373.365-.516a1.78 1.78 0 0 1 .515-.365 1.623 1.623 0 0 1 1.783.344c.344.315.515.694.515 1.138Z" fill="#DAA520"/><path d="M373.873 23.727V23.2c.208 0 .422-.012.641-.036a2.34 2.34 0 0 0 .605-.182c.183-.085.336-.2.458-.346.122-.158.183-.364.183-.619 0-.242-.073-.582-.22-1.019a28.692 28.692 0 0 0-1.044-2.639c-.183-.4-.311-.685-.385-.855h-7.253c-.049.097-.129.261-.239.491-.097.219-.213.474-.348.765-.134.279-.268.576-.403.892a52.03 52.03 0 0 0-.384.928c-.11.303-.202.582-.275.837-.073.255-.11.455-.11.6a.81.81 0 0 0 .238.601c.159.146.354.26.586.346.232.085.47.145.715.182.244.024.458.042.641.054v.528h-5.898V23.2c.439-.012.818-.115 1.135-.309a3 3 0 0 0 .825-.746 4.94 4.94 0 0 0 .622-1.001c.171-.376.336-.746.495-1.11l6.613-15.305h.476l6.503 15.414c.183.425.354.819.513 1.183.171.352.372.667.604.946.232.267.513.485.843.655.329.158.751.25 1.264.273v.528h-7.401Zm-3.334-14.796-3.26 7.571h6.448l-3.188-7.57ZM365.34 5.62c-.489 0-.892.115-1.209.345a2.652 2.652 0 0 0-.788.855c-.208.34-.385.716-.531 1.129-.135.412-.269.8-.403 1.164l-5.184 15.07h-.586l-4.25-11.903-4.232 11.902h-.531l-5.513-15.469-.422-1.146a4.014 4.014 0 0 0-.476-1.001 1.993 1.993 0 0 0-.733-.692c-.305-.17-.714-.255-1.227-.255v-.491h6.906v.491c-.183 0-.385.012-.605.037a2.307 2.307 0 0 0-.586.145 1.169 1.169 0 0 0-.44.328c-.109.145-.164.346-.164.6 0 .146.024.316.073.51.049.194.104.394.165.6.061.207.122.407.183.601l.183.491 3.664 10.465 3.114-8.9c-.135-.448-.287-.952-.458-1.51a8.472 8.472 0 0 0-.66-1.601 4.27 4.27 0 0 0-1.007-1.256c-.391-.34-.879-.51-1.466-.51v-.491h7.309v.491c-.232 0-.47.006-.714.018a1.85 1.85 0 0 0-.641.146 1.022 1.022 0 0 0-.458.364c-.11.158-.165.388-.165.692 0 .376.061.794.183 1.255.134.45.269.837.403 1.165l3.609 10.137 3.572-10.283c.048-.145.103-.315.164-.51.062-.193.117-.393.165-.6a6.22 6.22 0 0 0 .147-.6 2.34 2.34 0 0 0 .073-.528c0-.267-.067-.48-.201-.637a1.11 1.11 0 0 0-.495-.382 1.861 1.861 0 0 0-.641-.182 4.372 4.372 0 0 0-.678-.055v-.491h5.551v.491Zm-28.704 18.107h-14.398V23.2c.586 0 1.05-.036 1.392-.109.354-.073.623-.206.806-.4.183-.207.305-.486.366-.837.061-.364.092-.831.092-1.402V8.331c0-.582-.025-1.05-.073-1.401-.049-.352-.165-.625-.348-.82-.184-.193-.452-.32-.806-.382-.355-.072-.831-.109-1.429-.109v-.491h14.398l.219 4.058h-.513a15.53 15.53 0 0 0-.458-1.474c-.134-.4-.323-.716-.567-.946-.232-.23-.556-.394-.971-.492-.403-.097-.953-.145-1.649-.145h-5.165v7.352h4.121c.574 0 1.032-.036 1.374-.109.354-.085.635-.224.843-.419a1.77 1.77 0 0 0 .476-.819c.11-.351.201-.8.275-1.346h.512v6.497h-.512a8.43 8.43 0 0 0-.275-1.347c-.098-.352-.251-.63-.458-.837-.208-.219-.489-.37-.843-.455-.342-.085-.806-.128-1.392-.128h-4.121v6.115c0 .34.006.643.018.91.024.255.085.473.183.655.098.17.25.304.458.4.22.086.525.128.916.128h3.151c.818 0 1.489-.066 2.015-.2a3.683 3.683 0 0 0 1.355-.637 4.44 4.44 0 0 0 1.044-1.128 41.81 41.81 0 0 0 1.026-1.693h.586l-1.648 4.66Zm-16.651 0h-15.241V23.2l11.98-16.997h-5.972c-.696 0-1.27.066-1.721.2-.44.121-.8.321-1.081.6-.269.28-.483.65-.641 1.11-.147.462-.275 1.02-.385 1.675h-.513l.403-4.66h13.848l-12.309 17.49h7.657c.72 0 1.319-.085 1.795-.255a3.237 3.237 0 0 0 1.19-.764c.33-.34.605-.746.825-1.22.22-.485.427-1.03.623-1.637l.403.072-.861 4.914ZM304.012 5.62c-.587 0-1.057.036-1.411.108-.354.073-.629.213-.824.42-.183.193-.306.466-.367.818-.048.352-.073.807-.073 1.365v15.687h-.476L288.478 9.041v11.447c0 .582.024 1.05.073 1.401.061.352.183.625.367.819.183.194.451.328.806.4.354.061.824.091 1.41.091v.528h-6.521V23.2c.586 0 1.05-.036 1.392-.109.354-.073.623-.206.806-.4.183-.207.305-.486.366-.837.062-.352.092-.807.092-1.365V7.548a10.877 10.877 0 0 0-.659-.819 2.965 2.965 0 0 0-.642-.6 2.274 2.274 0 0 0-.769-.382 3.934 3.934 0 0 0-1.081-.128v-.491h4.58l11.448 13.94V8.331c0-.558-.03-1.013-.091-1.365-.061-.352-.189-.625-.385-.819-.183-.206-.452-.346-.806-.419-.342-.072-.806-.109-1.392-.109v-.491h6.54v.491Zm-28.741 18.107V23.2c.598 0 1.075-.036 1.429-.109.354-.085.622-.224.806-.418.183-.207.299-.486.348-.838.049-.363.073-.825.073-1.383V8.404c0-.57-.024-1.032-.073-1.383-.049-.364-.165-.65-.348-.856-.184-.206-.452-.346-.806-.418-.354-.085-.831-.128-1.429-.128v-.491h8.023v.491c-.586 0-1.056.043-1.41.128-.355.072-.629.212-.825.418-.183.207-.305.492-.366.856-.061.351-.092.812-.092 1.383V20.45c0 .558.025 1.02.074 1.383.061.352.183.631.366.838.183.194.452.333.806.418.354.073.836.11 1.447.11v.527h-8.023Zm-5.477 0-6.338-8.68a5.716 5.716 0 0 1-.66.036h-1.007l-.33-.037v5.405c0 .57.031 1.038.092 1.402.073.351.207.63.403.837.195.194.47.327.824.4.366.073.843.11 1.429.11v.527h-8.023V23.2c.598 0 1.074-.036 1.429-.109.354-.073.622-.206.805-.4.184-.207.3-.486.349-.837.048-.364.073-.831.073-1.402V8.404c0-.583-.025-1.05-.073-1.402-.049-.364-.165-.649-.349-.855-.183-.206-.451-.346-.805-.419-.355-.072-.831-.109-1.429-.109v-.491h7.052c.55 0 1.111.018 1.685.055.587.036 1.154.115 1.704.236a8.428 8.428 0 0 1 1.594.51c.5.206.94.491 1.318.855.379.352.678.783.898 1.292.22.51.33 1.116.33 1.82s-.116 1.329-.348 1.874a4.122 4.122 0 0 1-.971 1.384 5.329 5.329 0 0 1-1.447.946 9.309 9.309 0 0 1-1.814.564l3.829 5.369c.342.473.671.891.989 1.255.317.364.659.68 1.026.947.366.267.769.48 1.209.637.451.157.977.267 1.575.327v.528h-5.019Zm-2.107-13.613c0-.594-.097-1.134-.293-1.62a3.386 3.386 0 0 0-.842-1.237 3.484 3.484 0 0 0-1.283-.8 4.377 4.377 0 0 0-1.63-.292 8.33 8.33 0 0 0-1.081.073c-.354.049-.72.103-1.099.164v7.753h.788a9.76 9.76 0 0 0 1.978-.2 5.613 5.613 0 0 0 1.74-.656 3.78 3.78 0 0 0 1.246-1.237c.318-.522.476-1.171.476-1.948Zm-19.618 13.613V23.2c.208 0 .421-.012.641-.036.22-.036.421-.097.605-.182.183-.085.335-.2.457-.346.123-.158.184-.364.184-.619 0-.242-.074-.582-.22-1.019a26.968 26.968 0 0 0-.495-1.346 27.611 27.611 0 0 0-.549-1.293c-.183-.4-.312-.685-.385-.855h-7.254c-.049.097-.128.261-.238.491a79.25 79.25 0 0 1-.348.765c-.134.279-.269.576-.403.892a56.59 56.59 0 0 0-.385.928c-.11.303-.201.582-.274.837a2.3 2.3 0 0 0-.11.6.81.81 0 0 0 .238.601c.159.146.354.26.586.346.232.085.47.145.714.182.245.024.458.042.642.054v.528h-5.899V23.2c.44-.012.818-.115 1.136-.309a3.01 3.01 0 0 0 .824-.746c.244-.303.452-.637.623-1.001.171-.376.336-.746.495-1.11l6.612-15.305h.477l6.502 15.414.513 1.183c.171.352.373.667.605.946.232.267.513.485.842.655.33.158.751.25 1.264.273v.528h-7.4Zm-3.334-14.796-3.26 7.571h6.447l-3.187-7.57Zm-9.562-3.311c-.598 0-1.074.042-1.429.127-.354.072-.622.212-.806.418-.183.207-.305.492-.366.856-.049.351-.073.812-.073 1.383v9.1c0 .776-.073 1.558-.22 2.347a6.839 6.839 0 0 1-.769 2.147 4.621 4.621 0 0 1-1.484 1.583c-.611.4-1.386.601-2.326.601-.318 0-.642-.042-.971-.127a2.792 2.792 0 0 1-.898-.364 2.421 2.421 0 0 1-.641-.674c-.171-.267-.256-.588-.256-.964 0-.947.464-1.42 1.392-1.42.256 0 .47.067.641.2.183.122.342.274.476.456.134.181.25.388.348.618.098.219.196.419.293.6.11.183.22.34.33.474a.58.58 0 0 0 .421.182c.244 0 .434-.073.568-.218.134-.158.232-.34.293-.546a2.53 2.53 0 0 0 .128-.674c.013-.23.019-.43.019-.6V8.404a8.26 8.26 0 0 0-.092-1.365c-.049-.364-.165-.65-.348-.856-.183-.218-.452-.364-.806-.436-.354-.085-.836-.128-1.447-.128v-.491h8.023v.491Zm-11.925 8.716c0 1.323-.219 2.579-.659 3.768a9.86 9.86 0 0 1-1.869 3.148 8.807 8.807 0 0 1-2.894 2.148c-1.123.521-2.381.782-3.773.782-1.392 0-2.656-.26-3.792-.782a8.984 8.984 0 0 1-2.894-2.111 9.539 9.539 0 0 1-1.832-3.13 11.115 11.115 0 0 1-.641-3.786c0-1.347.226-2.602.678-3.767a9.232 9.232 0 0 1 1.941-3.058 8.966 8.966 0 0 1 2.968-2.056c1.148-.51 2.412-.764 3.792-.764 1.355 0 2.582.26 3.681.782a8.45 8.45 0 0 1 2.821 2.093 9.202 9.202 0 0 1 1.832 3.057c.428 1.165.641 2.39.641 3.676Zm-3.15.182a20.1 20.1 0 0 0-.11-2.074 12.243 12.243 0 0 0-.348-2.038 8.957 8.957 0 0 0-.696-1.839 5.442 5.442 0 0 0-1.118-1.492 4.906 4.906 0 0 0-1.63-1c-.623-.256-1.362-.383-2.216-.383-.782 0-1.472.127-2.07.382a4.871 4.871 0 0 0-1.539 1.001 5.63 5.63 0 0 0-1.099 1.492 9.973 9.973 0 0 0-.715 1.82 12.676 12.676 0 0 0-.366 1.966 17.9 17.9 0 0 0-.11 1.947c0 .619.037 1.268.11 1.947.073.68.202 1.347.385 2.002.183.655.421 1.28.714 1.875.293.594.66 1.116 1.099 1.565.44.449.959.807 1.557 1.074.599.266 1.289.4 2.07.4.818 0 1.533-.121 2.143-.364a5.117 5.117 0 0 0 1.612-.983 5.541 5.541 0 0 0 1.118-1.474 8.55 8.55 0 0 0 .714-1.801c.183-.644.311-1.305.385-1.984.073-.692.11-1.371.11-2.038Zm-17.274 4.132c0 .728-.116 1.365-.348 1.91a4.05 4.05 0 0 1-.953 1.365 5.165 5.165 0 0 1-1.41.929 9.123 9.123 0 0 1-1.685.546c-.586.12-1.191.206-1.814.254-.61.049-1.203.073-1.777.073h-8.81V23.2c.586 0 1.05-.036 1.392-.109.354-.085.622-.224.806-.418.183-.207.305-.486.366-.838.061-.363.092-.825.092-1.383V8.404c0-.583-.025-1.05-.074-1.402-.048-.364-.165-.649-.348-.855-.183-.206-.452-.346-.806-.419-.354-.072-.83-.109-1.428-.109v-.491h8.059c.574 0 1.167.024 1.777.073.611.048 1.209.14 1.795.273a8.32 8.32 0 0 1 1.667.527c.525.231.983.534 1.374.91.403.364.721.813.953 1.347.232.522.348 1.14.348 1.856 0 .522-.092 1.001-.275 1.438a4.04 4.04 0 0 1-.714 1.183c-.306.34-.666.637-1.081.892a5.77 5.77 0 0 1-1.337.6c.622.11 1.19.28 1.703.51.513.218.959.51 1.337.873.379.352.672.783.88 1.293.207.497.311 1.08.311 1.747Zm-3.755-8.681c0-.728-.159-1.34-.476-1.838a3.58 3.58 0 0 0-1.209-1.201 4.968 4.968 0 0 0-1.667-.674 8.647 8.647 0 0 0-1.85-.2c-.428 0-.855.024-1.283.073-.415.036-.83.103-1.245.2v7.152c.439.097.879.152 1.319.164.451.012.891.018 1.318.018a12 12 0 0 0 1.887-.145 4.91 4.91 0 0 0 1.631-.583 3.154 3.154 0 0 0 1.135-1.128c.293-.485.44-1.098.44-1.838Zm.568 8.88c0-.8-.177-1.467-.532-2.001a4.047 4.047 0 0 0-1.373-1.31 5.73 5.73 0 0 0-1.869-.692 10.087 10.087 0 0 0-2.07-.218c-.39 0-.787.006-1.19.018-.403 0-.825.03-1.264.09v7.644a19 19 0 0 0 1.593.292c.525.06 1.063.09 1.612.09.623 0 1.234-.066 1.832-.2a5.286 5.286 0 0 0 1.63-.673c.489-.315.88-.722 1.173-1.22.305-.497.458-1.103.458-1.82Zm-30.261 4.878V23.2c.207 0 .421-.012.641-.036.22-.036.421-.097.604-.182.183-.085.336-.2.458-.346.122-.158.183-.364.183-.619 0-.242-.073-.582-.219-1.019a26.968 26.968 0 0 0-.495-1.346 26.559 26.559 0 0 0-.55-1.293c-.183-.4-.311-.685-.384-.855h-7.254c-.049.097-.128.261-.238.491a79.25 79.25 0 0 1-.348.765 19.77 19.77 0 0 0-.403.892c-.135.315-.263.624-.385.928-.11.303-.201.582-.275.837-.073.255-.11.455-.11.6 0 .243.08.443.239.601.158.146.354.26.586.346.232.085.47.145.714.182.244.024.458.042.641.054v.528h-5.898V23.2c.44-.012.818-.115 1.136-.309a3.01 3.01 0 0 0 .824-.746c.244-.303.452-.637.623-1.001.171-.376.336-.746.494-1.11l6.613-15.305h.476l6.503 15.414c.183.425.354.819.513 1.183.171.352.372.667.605.946a2.8 2.8 0 0 0 .842.655c.33.158.751.25 1.264.273v.528h-7.4Zm-3.334-14.796-3.261 7.571h6.448l-3.187-7.57Zm-9.745-3.311c-.586 0-1.057.036-1.411.108-.354.073-.629.213-.824.42-.183.193-.305.466-.366.818a10.25 10.25 0 0 0-.074 1.365v15.687h-.476L140.763 9.041v11.447c0 .582.025 1.05.074 1.401.061.352.183.625.366.819.183.194.452.328.806.4.354.061.824.091 1.41.091v.528h-6.521V23.2c.586 0 1.05-.036 1.392-.109.355-.073.623-.206.806-.4.184-.207.306-.486.367-.837.061-.352.091-.807.091-1.365V7.548a10.877 10.877 0 0 0-.659-.819 2.984 2.984 0 0 0-.641-.6 2.289 2.289 0 0 0-.77-.382 3.931 3.931 0 0 0-1.08-.128v-.491h4.579l11.449 13.94V8.331a8.26 8.26 0 0 0-.092-1.365c-.061-.352-.189-.625-.385-.819-.183-.206-.451-.346-.806-.419-.341-.072-.806-.109-1.392-.109v-.491h6.54v.491Zm-28.741 18.107V23.2c.599 0 1.075-.036 1.429-.109.354-.085.623-.224.806-.418.183-.207.299-.486.348-.838.049-.363.073-.825.073-1.383V8.404c0-.57-.024-1.032-.073-1.383-.049-.364-.165-.65-.348-.856-.183-.206-.452-.346-.806-.418-.354-.085-.83-.128-1.429-.128v-.491h8.023v.491c-.586 0-1.056.043-1.41.128-.354.072-.629.212-.824.418-.184.207-.306.492-.367.856-.061.351-.091.812-.091 1.383V20.45c0 .558.024 1.02.073 1.383.061.352.183.631.366.838.183.194.452.333.806.418.354.073.837.11 1.447.11v.527h-8.023Zm-5.477 0-6.338-8.68a5.686 5.686 0 0 1-.659.036h-1.008l-.329-.037v5.405c0 .57.03 1.038.091 1.402.073.351.208.63.403.837.195.194.47.327.824.4.367.073.843.11 1.429.11v.527h-8.023V23.2c.598 0 1.075-.036 1.429-.109.354-.073.623-.206.806-.4.183-.207.299-.486.348-.837.049-.364.073-.831.073-1.402V8.404c0-.583-.024-1.05-.073-1.402-.049-.364-.165-.649-.348-.855-.183-.206-.452-.346-.806-.419-.354-.072-.831-.109-1.429-.109v-.491h7.052c.55 0 1.112.018 1.686.055.586.036 1.154.115 1.703.236a8.428 8.428 0 0 1 1.594.51c.5.206.94.491 1.319.855a3.8 3.8 0 0 1 .897 1.292c.22.51.33 1.116.33 1.82s-.116 1.329-.348 1.874a4.122 4.122 0 0 1-.971 1.384 5.314 5.314 0 0 1-1.447.946 9.288 9.288 0 0 1-1.814.564l3.829 5.369c.342.473.672.891.989 1.255.318.364.66.68 1.026.947.366.267.769.48 1.209.637a6.92 6.92 0 0 0 1.575.327v.528h-5.019Zm-2.106-13.613c0-.594-.098-1.134-.294-1.62a3.386 3.386 0 0 0-.842-1.237 3.48 3.48 0 0 0-1.282-.8 4.383 4.383 0 0 0-1.631-.292 8.21 8.21 0 0 0-1.08.073c-.355.049-.721.103-1.099.164v7.753h.787a9.76 9.76 0 0 0 1.978-.2 5.619 5.619 0 0 0 1.741-.656 3.776 3.776 0 0 0 1.245-1.237c.318-.522.477-1.171.477-1.948Zm-20.7 13.613V23.2c.599 0 1.075-.036 1.429-.109.354-.085.623-.224.806-.418.183-.207.299-.486.348-.838.049-.363.074-.825.074-1.383V8.404c0-.57-.025-1.032-.074-1.383-.049-.364-.165-.65-.348-.856-.183-.206-.452-.346-.806-.418-.354-.085-.83-.128-1.429-.128v-.491h8.024v.491c-.587 0-1.057.043-1.411.128-.354.072-.629.212-.824.418-.183.207-.305.492-.366.856-.062.351-.092.812-.092 1.383V20.45c0 .558.024 1.02.073 1.383.061.352.183.631.367.838.183.194.451.333.806.418.354.073.836.11 1.447.11v.527h-8.024Z" fill="#000"/></svg>